<?xml version="1.0" encoding="UTF-8"?>
<svg id="Camada_1" xmlns="http://www.w3.org/2000/svg" version="1.1" viewBox="0 0 35.06 37.29">
  <!-- Generator: Adobe Illustrator 29.8.2, SVG Export Plug-In . SVG Version: 2.1.1 Build 3)  -->
  <defs>
    <style>
      .st0 {
        fill: #fff;
      }
    </style>
  </defs>
  <path class="st0" d="M32.63,6.36c-.91-1.56-2.18-2.84-3.66-3.77-1.48-.92-3.18-1.49-4.97-1.61H.95s0,25.97,0,25.97c.32,4.99,3.88,7.86,7.1,8.88,4.02,1.26,8.15.03,10.78-3.24,1.76-2.19,2.48-4.86,2.28-8.41l-.1-1.63,1.65.04c4.44.16,8.51-2.23,10.38-6.14,1.56-3.27,1.41-6.95-.42-10.09ZM19.51,18.9h-3.77c-2.07,0-3.76-1.69-3.76-3.76s1.69-3.77,3.76-3.77,3.77,1.69,3.77,3.77v3.76ZM29.68,15.01c-.58,1.09-1.42,2.01-2.44,2.67-1.03.67-2.24,1.1-3.53,1.22l-.55.05v-3.81c0-4.09-3.33-7.42-7.42-7.42s-7.41,3.33-7.41,7.42,3.32,7.41,7.41,7.41h1.72v4.18c0,2.33-2.12,4.72-4.11,5.49-.68.27-1.41.4-2.18.4-1.36,0-2.75-.43-3.91-1.23-1.68-1.15-2.65-2.87-2.65-4.73V4.64h19.34c2.09,0,4.44,1.76,5.43,3.38,1.35,2.23,1.46,4.78.3,6.99Z"/>
</svg>