<?xml version="1.0" encoding="UTF-8"?>
<svg id="Camada_1" xmlns="http://www.w3.org/2000/svg" version="1.1" viewBox="0 0 44.82 44.82">
  <!-- Generator: Adobe Illustrator 29.8.2, SVG Export Plug-In . SVG Version: 2.1.1 Build 3)  -->
  <defs>
    <style>
      .st0 {
        opacity: .4;
      }

      .st0, .st1, .st2, .st3 {
        fill: #2e3534;
      }

      .st1 {
        opacity: .6;
      }

      .st2 {
        opacity: .8;
      }
    </style>
  </defs>
  <path class="st3" d="M21.67.84h0c-2.41,2.41-2.41,6.31,0,8.71h0c.41.41,1.07.41,1.48,0h0c2.41-2.41,2.41-6.31,0-8.71h0c-.41-.41-1.07-.41-1.48,0Z"/>
  <path class="st3" d="M6.63,7.68h0c0,3.4,2.76,6.16,6.16,6.16h0c.58,0,1.05-.47,1.05-1.05h0c0-3.4-2.76-6.16-6.16-6.16h0c-.58,0-1.05.47-1.05,1.05Z"/>
  <path class="st0" d="M.84,23.15h0c2.41,2.41,6.31,2.41,8.71,0h0c.41-.41.41-1.07,0-1.48h0c-2.41-2.41-6.31-2.41-8.71,0h0c-.41.41-.41,1.07,0,1.48Z"/>
  <path class="st1" d="M7.68,38.18h0c3.4,0,6.16-2.76,6.16-6.16h0c0-.58-.47-1.05-1.05-1.05h0c-3.4,0-6.16,2.76-6.16,6.16h0c0,.58.47,1.05,1.05,1.05Z"/>
  <path class="st2" d="M23.15,43.98h0c2.41-2.41,2.41-6.31,0-8.71h0c-.41-.41-1.07-.41-1.48,0h0c-2.41,2.41-2.41,6.31,0,8.71h0c.41.41,1.07.41,1.48,0Z"/>
  <path class="st3" d="M38.18,37.14h0c0-3.4-2.76-6.16-6.16-6.16h0c-.58,0-1.05.47-1.05,1.05h0c0,3.4,2.76,6.16,6.16,6.16h0c.58,0,1.05-.47,1.05-1.05Z"/>
  <path class="st3" d="M43.98,21.67h0c-2.41-2.41-6.31-2.41-8.71,0h0c-.41.41-.41,1.07,0,1.48h0c2.41,2.41,6.31,2.41,8.71,0h0c.41-.41.41-1.07,0-1.48Z"/>
  <path class="st3" d="M37.14,6.63h0c-3.4,0-6.16,2.76-6.16,6.16h0c0,.58.47,1.05,1.05,1.05h0c3.4,0,6.16-2.76,6.16-6.16h0c0-.58-.47-1.05-1.05-1.05Z"/>
</svg>