<?xml version="1.0" encoding="UTF-8"?>
<svg id="Camada_1" xmlns="http://www.w3.org/2000/svg" version="1.1" viewBox="0 0 35.06 37.29">
  <!-- Generator: Adobe Illustrator 29.8.2, SVG Export Plug-In . SVG Version: 2.1.1 Build 3)  -->
  <defs>
    <style>
      .st0 {
        fill: #fff;
      }
    </style>
  </defs>
  <path class="st0" d="M33.05,6.11c-1.9-3.26-5.28-5.37-9.03-5.63H.45s0,26.47,0,26.47c.35,5.25,4.08,8.29,7.46,9.35,4.22,1.33,8.56.03,11.31-3.4,1.84-2.29,2.6-5.07,2.39-8.76l-.06-1.1h.05l1.05.04c4.68.18,8.9-2.34,10.85-6.43,1.64-3.42,1.48-7.27-.44-10.56ZM19,18.4h-3.27c-1.8,0-3.26-1.46-3.26-3.27s1.46-3.27,3.26-3.27,3.27,1.46,3.27,3.27v3.27ZM29.23,14.78c-1.08,2.06-3.16,3.39-5.58,3.62v-3.26c0-4.36-3.55-7.92-7.92-7.92s-7.92,3.55-7.92,7.92,3.55,7.92,7.92,7.92h1.21v3.68c0,2.09-1.99,4.33-3.78,5.02-.63.25-1.31.37-2,.37-1.25,0-2.53-.39-3.63-1.14-1.54-1.06-2.43-2.63-2.43-4.32V5.14h18.84c1.85,0,4.08,1.62,5,3.14,1.26,2.08,1.37,4.45.28,6.5Z"/>
</svg>