<?xml version="1.0" encoding="UTF-8"?>
<svg id="Camada_1" xmlns="http://www.w3.org/2000/svg" version="1.1" viewBox="0 0 36.16 37.08">
  <!-- Generator: Adobe Illustrator 29.8.2, SVG Export Plug-In . SVG Version: 2.1.1 Build 3)  -->
  <defs>
    <style>
      .st0 {
        fill: #fff;
      }
    </style>
  </defs>
  <polygon class="st0" points="11.57 18.55 3.7 18.55 2.7 20.26 1.12 23.03 2.54 20.54 2.7 20.26 .42 24.18 14.83 24.18 18.08 18.54 11.57 18.55 11.57 18.55"/>
  <polygon class="st0" points="14.83 24.18 10.9 31 11.88 32.72 13.49 35.47 12.04 32.99 11.88 32.72 14.13 36.65 21.33 24.17 18.08 18.54 14.83 24.18 14.83 24.18"/>
  <polygon class="st0" points="21.33 24.17 25.28 30.99 27.26 31 30.44 30.98 27.57 31 27.26 31 31.78 31.01 24.58 18.54 18.08 18.54 21.33 24.17 21.33 24.17"/>
  <polygon class="st0" points="33.61 16.54 33.46 16.82 35.73 12.91 21.33 12.91 18.08 18.54 24.58 18.54 32.46 18.53 33.46 16.82 35.03 14.06 33.61 16.54 33.61 16.54"/>
  <polygon class="st0" points="21.33 12.91 25.26 6.08 24.27 4.36 22.67 1.62 24.12 4.09 24.27 4.36 22.03 .43 14.82 12.91 18.08 18.54 21.33 12.91 21.33 12.91"/>
  <polygon class="st0" points="14.82 12.91 10.88 6.09 8.9 6.08 5.72 6.1 8.58 6.09 8.89 6.08 4.37 6.07 11.57 18.55 18.08 18.54 14.82 12.91 14.82 12.91"/>
  <line class="st0" x1="18.08" y1="18.54" x2="14.82" y2="12.91"/>
</svg>